<?xml version="1.0" encoding="utf-8" standalone="no"?>
<!DOCTYPE svg PUBLIC "-//W3C//DTD SVG 1.1//EN"
  "http://www.w3.org/Graphics/SVG/1.1/DTD/svg11.dtd">
<svg xmlns:xlink="http://www.w3.org/1999/xlink" width="765.59625pt" height="355.68pt" viewBox="0 0 765.59625 355.68" xmlns="http://www.w3.org/2000/svg" version="1.1">
 <metadata>
  <rdf:RDF xmlns:dc="http://purl.org/dc/elements/1.1/" xmlns:cc="http://creativecommons.org/ns#" xmlns:rdf="http://www.w3.org/1999/02/22-rdf-syntax-ns#">
   <cc:Work>
    <dc:type rdf:resource="http://purl.org/dc/dcmitype/StillImage"/>
    <dc:date>2026-09-29T07:45:12.137314</dc:date>
    <dc:format>image/svg+xml</dc:format>
    <dc:creator>
     <cc:Agent>
      <dc:title>Matplotlib v3.11.1, https://matplotlib.org/</dc:title>
     </cc:Agent>
    </dc:creator>
   </cc:Work>
  </rdf:RDF>
 </metadata>
 <defs>
  <style type="text/css">*{stroke-linejoin: round; stroke-linecap: butt}</style>
 </defs>
 <g id="figure_1">
  <g id="patch_1">
   <path d="M 0 355.68
L 765.59625 355.68
L 765.59625 0
L 0 0
z
" style="fill: #ffffff"/>
  </g>
  <g id="axes_1">
   <g id="patch_2">
    <path d="M 70.85125 313.48
L 758.39625 313.48
L 758.39625 38.68
L 70.85125 38.68
z
" style="fill: #ffffff"/>
   </g>
   <g id="matplotlib.axis_1">
    <g id="xtick_1">
     <g id="line2d_1">
      <path d="M 98.630846 313.48
L 98.630846 38.68
" clip-path="url(#paa48c82c54)" style="fill: none; stroke: #d9e1ec; stroke-width: 0.8; stroke-linecap: square"/>
     </g>
     <g id="line2d_2">
      <defs>
       <path id="m719551a1ef" d="M 0 0
L 0 3.5
" style="stroke: #667085; stroke-width: 0.8"/>
      </defs>
      <g>
       <use xlink:href="#m719551a1ef" x="98.630846" y="313.48" style="fill: #667085; stroke: #667085; stroke-width: 0.8"/>
      </g>
     </g>
     <g id="text_1">
      <!-- 1 -->
      <g style="fill: #667085" transform="translate(96.225221 330.8) scale(0.12 -0.12)">
       <defs>
        <path id="PingFangSC-Regular-14" d="M 1472 4570
C 1318 4397 1139 4243 922 4102
C 704 3974 486 3885 282 3827
L 282 3302
C 710 3430 1069 3635 1357 3930
L 1357 0
L 1882 0
L 1882 4570
L 1472 4570
z
" transform="scale(0.015625)"/>
       </defs>
       <use xlink:href="#PingFangSC-Regular-14"/>
      </g>
     </g>
    </g>
    <g id="xtick_2">
     <g id="line2d_3">
      <path d="M 237.528826 313.48
L 237.528826 38.68
" clip-path="url(#paa48c82c54)" style="fill: none; stroke: #d9e1ec; stroke-width: 0.8; stroke-linecap: square"/>
     </g>
     <g id="line2d_4">
      <g>
       <use xlink:href="#m719551a1ef" x="237.528826" y="313.48" style="fill: #667085; stroke: #667085; stroke-width: 0.8"/>
      </g>
     </g>
     <g id="text_2">
      <!-- 2 -->
      <g style="fill: #667085" transform="translate(233.928826 330.8) scale(0.12 -0.12)">
       <defs>
        <path id="PingFangSC-Regular-15" d="M 1984 4659
C 1523 4659 1146 4506 864 4198
C 582 3898 435 3488 435 2976
L 960 2976
C 966 3379 1062 3686 1242 3891
C 1408 4109 1651 4211 1965 4211
C 2259 4211 2496 4134 2662 3981
C 2829 3827 2912 3616 2912 3334
C 2912 3040 2790 2765 2560 2515
C 2438 2387 2202 2202 1843 1946
C 1357 1613 1030 1338 851 1133
C 544 794 397 416 397 0
L 3443 0
L 3443 467
L 1043 467
C 1126 774 1459 1126 2042 1517
C 2515 1837 2829 2086 2989 2253
C 3283 2573 3437 2931 3437 3328
C 3437 3725 3296 4051 3027 4294
C 2752 4538 2406 4659 1984 4659
z
" transform="scale(0.015625)"/>
       </defs>
       <use xlink:href="#PingFangSC-Regular-15"/>
      </g>
     </g>
    </g>
    <g id="xtick_3">
     <g id="line2d_5">
      <path d="M 376.426806 313.48
L 376.426806 38.68
" clip-path="url(#paa48c82c54)" style="fill: none; stroke: #d9e1ec; stroke-width: 0.8; stroke-linecap: square"/>
     </g>
     <g id="line2d_6">
      <g>
       <use xlink:href="#m719551a1ef" x="376.426806" y="313.48" style="fill: #667085; stroke: #667085; stroke-width: 0.8"/>
      </g>
     </g>
     <g id="text_3">
      <!-- 3 -->
      <g style="fill: #667085" transform="translate(372.826806 330.8) scale(0.12 -0.12)">
       <defs>
        <path id="PingFangSC-Regular-16" d="M 1965 4659
C 1530 4659 1178 4538 909 4288
C 627 4038 461 3693 422 3251
L 941 3251
C 973 3558 1075 3795 1254 3962
C 1427 4128 1664 4205 1971 4205
C 2266 4205 2502 4134 2669 3981
C 2822 3840 2906 3642 2906 3386
C 2906 3130 2822 2931 2662 2790
C 2502 2656 2272 2586 1965 2586
L 1613 2586
L 1613 2176
L 1984 2176
C 2304 2176 2547 2106 2726 1952
C 2906 1798 2995 1587 2995 1312
C 2995 1043 2899 819 2720 640
C 2522 454 2259 358 1933 358
C 1645 358 1408 442 1216 595
C 992 781 870 1056 858 1414
L 326 1414
C 365 902 544 512 870 243
C 1146 26 1498 -90 1933 -90
C 2406 -90 2790 45 3085 314
C 3373 576 3520 915 3520 1331
C 3520 1600 3443 1824 3290 2003
C 3149 2182 2944 2310 2675 2394
C 3174 2560 3424 2906 3424 3418
C 3424 3802 3290 4102 3027 4326
C 2758 4550 2400 4659 1965 4659
z
" transform="scale(0.015625)"/>
       </defs>
       <use xlink:href="#PingFangSC-Regular-16"/>
      </g>
     </g>
    </g>
    <g id="xtick_4">
     <g id="line2d_7">
      <path d="M 515.324785 313.48
L 515.324785 38.68
" clip-path="url(#paa48c82c54)" style="fill: none; stroke: #d9e1ec; stroke-width: 0.8; stroke-linecap: square"/>
     </g>
     <g id="line2d_8">
      <g>
       <use xlink:href="#m719551a1ef" x="515.324785" y="313.48" style="fill: #667085; stroke: #667085; stroke-width: 0.8"/>
      </g>
     </g>
     <g id="text_4">
      <!-- 4 -->
      <g style="fill: #667085" transform="translate(511.724785 330.8) scale(0.12 -0.12)">
       <defs>
        <path id="PingFangSC-Regular-17" d="M 2458 4570
L 154 1536
L 154 1037
L 2451 1037
L 2451 0
L 2950 0
L 2950 1037
L 3693 1037
L 3693 1466
L 2950 1466
L 2950 4570
L 2458 4570
z
M 2432 3885
L 2451 3885
L 2451 1466
L 595 1466
L 2432 3885
z
" transform="scale(0.015625)"/>
       </defs>
       <use xlink:href="#PingFangSC-Regular-17"/>
      </g>
     </g>
    </g>
    <g id="xtick_5">
     <g id="line2d_9">
      <path d="M 654.222765 313.48
L 654.222765 38.68
" clip-path="url(#paa48c82c54)" style="fill: none; stroke: #d9e1ec; stroke-width: 0.8; stroke-linecap: square"/>
     </g>
     <g id="line2d_10">
      <g>
       <use xlink:href="#m719551a1ef" x="654.222765" y="313.48" style="fill: #667085; stroke: #667085; stroke-width: 0.8"/>
      </g>
     </g>
     <g id="text_5">
      <!-- 5 -->
      <g style="fill: #667085" transform="translate(650.622765 330.8) scale(0.12 -0.12)">
       <defs>
        <path id="PingFangSC-Regular-18" d="M 672 4570
L 429 2048
L 928 2048
C 1018 2227 1158 2368 1338 2458
C 1510 2554 1702 2598 1920 2598
C 2253 2598 2515 2502 2701 2298
C 2893 2099 2995 1818 2995 1453
C 2995 1133 2886 870 2682 666
C 2470 461 2208 358 1888 358
C 1606 358 1370 429 1190 563
C 986 717 870 941 845 1229
L 326 1229
C 358 813 531 480 851 237
C 1133 19 1478 -90 1882 -90
C 2330 -90 2714 51 3021 326
C 3347 621 3514 998 3514 1459
C 3514 1952 3373 2336 3104 2618
C 2835 2893 2483 3027 2048 3027
C 1837 3027 1645 2995 1466 2918
C 1267 2842 1101 2726 973 2573
L 947 2573
L 1101 4102
L 3328 4102
L 3328 4570
L 672 4570
z
" transform="scale(0.015625)"/>
       </defs>
       <use xlink:href="#PingFangSC-Regular-18"/>
      </g>
     </g>
    </g>
    <g id="text_6">
     <!-- 计时轮次 -->
     <g style="fill: #13213c" transform="translate(390.62375 346.8) scale(0.12 -0.12)">
      <defs>
       <path id="PingFangSC-Regular-1987" d="M 2291 3309
L 2291 2848
L 4026 2848
L 4026 -653
L 4499 -653
L 4499 2848
L 6144 2848
L 6144 3309
L 4499 3309
L 4499 5235
L 4026 5235
L 4026 3309
L 2291 3309
z
M 1037 5165
L 717 4851
C 1178 4506 1549 4173 1818 3859
L 2131 4179
C 1837 4512 1472 4838 1037 5165
z
M 288 3270
L 288 2829
L 1229 2829
L 1229 275
C 1229 173 1178 83 1082 6
L 1261 -410
C 1715 -109 2144 230 2541 614
L 2426 1088
C 2157 832 1901 614 1670 422
L 1670 3270
L 288 3270
z
" transform="scale(0.015625)"/>
       <path id="PingFangSC-Regular-df8" d="M 2368 4749
L 525 4749
L 525 -122
L 973 -122
L 973 461
L 1920 461
L 1920 32
L 2368 32
L 2368 4749
z
M 973 890
L 973 2432
L 1920 2432
L 1920 890
L 973 890
z
M 973 2861
L 973 4326
L 1920 4326
L 1920 2861
L 973 2861
z
M 3290 2842
L 2912 2605
C 3296 2016 3597 1478 3821 998
L 4205 1267
C 3994 1715 3686 2240 3290 2842
z
M 4749 -576
C 5146 -576 5344 -371 5344 32
L 5344 3610
L 6131 3610
L 6131 4051
L 5344 4051
L 5344 5178
L 4877 5178
L 4877 4051
L 2662 4051
L 2662 3610
L 4877 3610
L 4877 147
C 4877 -51 4781 -154 4595 -154
C 4256 -154 3904 -141 3533 -128
L 3629 -576
L 4749 -576
z
" transform="scale(0.015625)"/>
       <path id="PingFangSC-Regular-1aea" d="M 1594 3469
L 1594 2496
L 890 2496
C 1062 2912 1222 3392 1376 3942
L 2784 3942
L 2784 4390
L 1485 4390
C 1542 4634 1600 4896 1658 5171
L 1222 5242
C 1165 4947 1107 4659 1043 4390
L 294 4390
L 294 3942
L 928 3942
C 774 3354 602 2874 422 2490
L 518 2080
L 1594 2080
L 1594 1126
C 1184 1056 749 992 288 941
L 346 493
C 781 550 1197 614 1594 678
L 1594 -634
L 2042 -634
L 2042 762
C 2349 826 2643 896 2931 973
L 2931 1408
C 2650 1338 2355 1274 2042 1210
L 2042 2080
L 2758 2080
L 2758 2496
L 2042 2496
L 2042 3469
L 1594 3469
z
M 4166 5210
C 3782 4358 3245 3667 2547 3136
L 2797 2752
C 3430 3226 3955 3898 4371 4774
C 4710 3974 5222 3302 5907 2765
L 6170 3155
C 5414 3744 4883 4429 4576 5210
L 4166 5210
z
M 5158 -544
C 5414 -544 5606 -480 5722 -352
C 5862 -205 5958 205 6003 877
L 5581 1018
C 5549 467 5491 134 5402 19
C 5338 -70 5229 -122 5069 -122
L 4109 -122
C 3904 -122 3808 -6 3808 218
L 3808 1293
C 4371 1517 4960 1850 5581 2298
L 5306 2675
C 4819 2278 4320 1971 3808 1747
L 3808 2867
L 3360 2867
L 3360 128
C 3360 -320 3565 -544 3974 -544
L 5158 -544
z
" transform="scale(0.015625)"/>
       <path id="PingFangSC-Regular-f7a" d="M 3091 3814
L 5414 3814
C 5286 3315 5126 2867 4928 2470
L 5382 2342
C 5600 2874 5773 3411 5907 3955
L 5907 4256
L 3219 4256
C 3290 4538 3347 4845 3398 5178
L 2938 5248
C 2784 4134 2445 3258 1920 2630
L 2304 2362
C 2630 2733 2893 3219 3091 3814
z
M 3750 3379
C 3738 2547 3629 1856 3424 1312
C 3136 672 2560 134 1690 -288
L 1990 -653
C 2976 -166 3603 461 3878 1229
C 3930 1370 3974 1517 4013 1677
C 4422 755 5037 -13 5869 -640
L 6170 -288
C 5203 378 4531 1280 4147 2419
C 4179 2714 4198 3034 4198 3379
L 3750 3379
z
M 691 4954
L 320 4723
C 806 4237 1197 3789 1485 3392
L 1843 3648
C 1574 4019 1190 4454 691 4954
z
M 1472 2208
C 1126 1376 723 557 250 -243
L 678 -435
C 1120 339 1517 1171 1875 2054
L 1472 2208
z
" transform="scale(0.015625)"/>
      </defs>
      <use xlink:href="#PingFangSC-Regular-1987"/>
      <use xlink:href="#PingFangSC-Regular-df8" transform="translate(100 0)"/>
      <use xlink:href="#PingFangSC-Regular-1aea" transform="translate(200 0)"/>
      <use xlink:href="#PingFangSC-Regular-f7a" transform="translate(300 0)"/>
     </g>
    </g>
   </g>
   <g id="matplotlib.axis_2">
    <g id="ytick_1">
     <g id="line2d_11">
      <path d="M 70.85125 167.70677
L 758.39625 167.70677
" clip-path="url(#paa48c82c54)" style="fill: none; stroke: #d9e1ec; stroke-width: 0.8; stroke-linecap: square"/>
     </g>
     <g id="line2d_12">
      <defs>
       <path id="mc678554e4b" d="M 0 0
L -3.5 0
" style="stroke: #667085; stroke-width: 0.8"/>
      </defs>
      <g>
       <use xlink:href="#mc678554e4b" x="70.85125" y="167.70677" style="fill: #667085; stroke: #667085; stroke-width: 0.8"/>
      </g>
     </g>
     <g id="text_7">
      <!-- $\mathdefault{10^{0}}$ -->
      <g style="fill: #667085" transform="translate(46.33125 173.28677) scale(0.12 -0.12)">
       <defs>
        <path id="PingFangSC-Regular-13" d="M 1920 4659
C 1370 4659 960 4422 685 3936
C 442 3526 320 2976 320 2285
C 320 1594 442 1043 685 634
C 960 154 1370 -90 1920 -90
C 2464 -90 2874 154 3155 634
C 3398 1043 3520 1594 3520 2285
C 3520 2976 3398 3526 3155 3936
C 2874 4422 2464 4659 1920 4659
z
M 1920 4211
C 2330 4211 2624 3994 2803 3552
C 2931 3245 3002 2822 3002 2285
C 3002 1754 2931 1331 2803 1018
C 2624 582 2330 358 1920 358
C 1510 358 1216 582 1037 1018
C 909 1331 845 1754 845 2285
C 845 2822 909 3245 1037 3552
C 1216 3994 1510 4211 1920 4211
z
" transform="scale(0.015625)"/>
       </defs>
       <use xlink:href="#PingFangSC-Regular-14" transform="translate(0 0.742188)"/>
       <use xlink:href="#PingFangSC-Regular-13" transform="translate(40.09996 0.742188)"/>
       <use xlink:href="#PingFangSC-Regular-13" transform="translate(101.056931 42.042187) scale(0.7)"/>
      </g>
     </g>
    </g>
    <g id="ytick_2">
     <g id="line2d_13">
      <path d="M 70.85125 277.864274
L 758.39625 277.864274
" clip-path="url(#paa48c82c54)" style="fill: none; stroke: #d9e1ec; stroke-width: 0.8; stroke-linecap: square"/>
     </g>
     <g id="line2d_14">
      <defs>
       <path id="m1b1f015167" d="M 0 0
L -2 0
" style="stroke: #667085; stroke-width: 0.6"/>
      </defs>
      <g>
       <use xlink:href="#m1b1f015167" x="70.85125" y="277.864274" style="fill: #667085; stroke: #667085; stroke-width: 0.6"/>
      </g>
     </g>
     <g id="text_8">
      <!-- $\mathdefault{3\times10^{-1}}$ -->
      <g style="fill: #667085" transform="translate(23.45125 283.384274) scale(0.12 -0.12)">
       <defs>
        <path id="PingFangSC-Regular-9a" d="M 672 3226
L 365 2918
L 1638 1658
L 365 390
L 672 83
L 1939 1350
L 3200 83
L 3507 390
L 2240 1658
L 3507 2918
L 3200 3226
L 1939 1958
L 672 3226
z
" transform="scale(0.015625)"/>
        <path id="PingFangSC-Regular-17a" d="M 320 2566
L 320 2042
L 4954 2042
L 4954 2566
L 320 2566
z
" transform="scale(0.015625)"/>
       </defs>
       <use xlink:href="#PingFangSC-Regular-16" transform="translate(0 0.715625)"/>
       <use xlink:href="#PingFangSC-Regular-9a" transform="translate(79.482361 0.715625)"/>
       <use xlink:href="#PingFangSC-Regular-14" transform="translate(159.464722 0.715625)"/>
       <use xlink:href="#PingFangSC-Regular-13" transform="translate(199.564682 0.715625)"/>
       <use xlink:href="#PingFangSC-Regular-17a" transform="translate(260.521652 42.015625) scale(0.7)"/>
       <use xlink:href="#PingFangSC-Regular-14" transform="translate(318.201595 42.015625) scale(0.7)"/>
      </g>
     </g>
    </g>
    <g id="ytick_3">
     <g id="line2d_15">
      <path d="M 70.85125 251.5428
L 758.39625 251.5428
" clip-path="url(#paa48c82c54)" style="fill: none; stroke: #d9e1ec; stroke-width: 0.8; stroke-linecap: square"/>
     </g>
     <g id="line2d_16">
      <g>
       <use xlink:href="#m1b1f015167" x="70.85125" y="251.5428" style="fill: #667085; stroke: #667085; stroke-width: 0.6"/>
      </g>
     </g>
     <g id="text_9">
      <!-- $\mathdefault{4\times10^{-1}}$ -->
      <g style="fill: #667085" transform="translate(23.45125 257.0628) scale(0.12 -0.12)">
       <use xlink:href="#PingFangSC-Regular-17" transform="translate(0 0.715625)"/>
       <use xlink:href="#PingFangSC-Regular-9a" transform="translate(79.482361 0.715625)"/>
       <use xlink:href="#PingFangSC-Regular-14" transform="translate(159.464722 0.715625)"/>
       <use xlink:href="#PingFangSC-Regular-13" transform="translate(199.564682 0.715625)"/>
       <use xlink:href="#PingFangSC-Regular-17a" transform="translate(260.521652 42.015625) scale(0.7)"/>
       <use xlink:href="#PingFangSC-Regular-14" transform="translate(318.201595 42.015625) scale(0.7)"/>
      </g>
     </g>
    </g>
    <g id="ytick_4">
     <g id="line2d_17">
      <path d="M 70.85125 231.126278
L 758.39625 231.126278
" clip-path="url(#paa48c82c54)" style="fill: none; stroke: #d9e1ec; stroke-width: 0.8; stroke-linecap: square"/>
     </g>
     <g id="line2d_18">
      <g>
       <use xlink:href="#m1b1f015167" x="70.85125" y="231.126278" style="fill: #667085; stroke: #667085; stroke-width: 0.6"/>
      </g>
     </g>
    </g>
    <g id="ytick_5">
     <g id="line2d_19">
      <path d="M 70.85125 214.444765
L 758.39625 214.444765
" clip-path="url(#paa48c82c54)" style="fill: none; stroke: #d9e1ec; stroke-width: 0.8; stroke-linecap: square"/>
     </g>
     <g id="line2d_20">
      <g>
       <use xlink:href="#m1b1f015167" x="70.85125" y="214.444765" style="fill: #667085; stroke: #667085; stroke-width: 0.6"/>
      </g>
     </g>
     <g id="text_10">
      <!-- $\mathdefault{6\times10^{-1}}$ -->
      <g style="fill: #667085" transform="translate(23.45125 219.964765) scale(0.12 -0.12)">
       <defs>
        <path id="PingFangSC-Regular-19" d="M 1984 4659
C 1466 4659 1056 4422 755 3942
C 467 3488 326 2893 326 2163
C 326 1466 454 922 723 531
C 1005 122 1421 -90 1978 -90
C 2426 -90 2790 64 3085 358
C 3373 653 3520 1030 3520 1478
C 3520 1926 3386 2285 3123 2566
C 2854 2848 2502 2989 2067 2989
C 1798 2989 1562 2925 1357 2790
C 1139 2662 979 2477 864 2240
L 838 2240
C 832 2323 832 2381 832 2406
C 832 2925 928 3354 1133 3686
C 1338 4045 1619 4218 1978 4218
C 2509 4218 2822 3962 2925 3437
L 3443 3437
C 3315 4256 2829 4659 1984 4659
z
M 1965 2554
C 2278 2554 2528 2458 2720 2253
C 2906 2061 3002 1805 3002 1478
C 3002 1152 2906 883 2714 666
C 2522 461 2272 352 1965 352
C 1645 352 1395 461 1203 678
C 1011 883 922 1146 922 1466
C 922 1786 1018 2042 1216 2246
C 1414 2451 1664 2554 1965 2554
z
" transform="scale(0.015625)"/>
       </defs>
       <use xlink:href="#PingFangSC-Regular-19" transform="translate(0 0.715625)"/>
       <use xlink:href="#PingFangSC-Regular-9a" transform="translate(79.482361 0.715625)"/>
       <use xlink:href="#PingFangSC-Regular-14" transform="translate(159.464722 0.715625)"/>
       <use xlink:href="#PingFangSC-Regular-13" transform="translate(199.564682 0.715625)"/>
       <use xlink:href="#PingFangSC-Regular-17a" transform="translate(260.521652 42.015625) scale(0.7)"/>
       <use xlink:href="#PingFangSC-Regular-14" transform="translate(318.201595 42.015625) scale(0.7)"/>
      </g>
     </g>
    </g>
    <g id="ytick_6">
     <g id="line2d_21">
      <path d="M 70.85125 200.340747
L 758.39625 200.340747
" clip-path="url(#paa48c82c54)" style="fill: none; stroke: #d9e1ec; stroke-width: 0.8; stroke-linecap: square"/>
     </g>
     <g id="line2d_22">
      <g>
       <use xlink:href="#m1b1f015167" x="70.85125" y="200.340747" style="fill: #667085; stroke: #667085; stroke-width: 0.6"/>
      </g>
     </g>
    </g>
    <g id="ytick_7">
     <g id="line2d_23">
      <path d="M 70.85125 188.123291
L 758.39625 188.123291
" clip-path="url(#paa48c82c54)" style="fill: none; stroke: #d9e1ec; stroke-width: 0.8; stroke-linecap: square"/>
     </g>
     <g id="line2d_24">
      <g>
       <use xlink:href="#m1b1f015167" x="70.85125" y="188.123291" style="fill: #667085; stroke: #667085; stroke-width: 0.6"/>
      </g>
     </g>
    </g>
    <g id="ytick_8">
     <g id="line2d_25">
      <path d="M 70.85125 177.346731
L 758.39625 177.346731
" clip-path="url(#paa48c82c54)" style="fill: none; stroke: #d9e1ec; stroke-width: 0.8; stroke-linecap: square"/>
     </g>
     <g id="line2d_26">
      <g>
       <use xlink:href="#m1b1f015167" x="70.85125" y="177.346731" style="fill: #667085; stroke: #667085; stroke-width: 0.6"/>
      </g>
     </g>
    </g>
    <g id="ytick_9">
     <g id="line2d_27">
      <path d="M 70.85125 104.287261
L 758.39625 104.287261
" clip-path="url(#paa48c82c54)" style="fill: none; stroke: #d9e1ec; stroke-width: 0.8; stroke-linecap: square"/>
     </g>
     <g id="line2d_28">
      <g>
       <use xlink:href="#m1b1f015167" x="70.85125" y="104.287261" style="fill: #667085; stroke: #667085; stroke-width: 0.6"/>
      </g>
     </g>
     <g id="text_11">
      <!-- $\mathdefault{2\times10^{0}}$ -->
      <g style="fill: #667085" transform="translate(28.73125 109.867261) scale(0.12 -0.12)">
       <use xlink:href="#PingFangSC-Regular-15" transform="translate(0 0.742188)"/>
       <use xlink:href="#PingFangSC-Regular-9a" transform="translate(79.482361 0.742188)"/>
       <use xlink:href="#PingFangSC-Regular-14" transform="translate(159.464722 0.742188)"/>
       <use xlink:href="#PingFangSC-Regular-13" transform="translate(199.564682 0.742188)"/>
       <use xlink:href="#PingFangSC-Regular-13" transform="translate(260.521652 42.042187) scale(0.7)"/>
      </g>
     </g>
    </g>
    <g id="ytick_10">
     <g id="line2d_29">
      <path d="M 70.85125 67.189227
L 758.39625 67.189227
" clip-path="url(#paa48c82c54)" style="fill: none; stroke: #d9e1ec; stroke-width: 0.8; stroke-linecap: square"/>
     </g>
     <g id="line2d_30">
      <g>
       <use xlink:href="#m1b1f015167" x="70.85125" y="67.189227" style="fill: #667085; stroke: #667085; stroke-width: 0.6"/>
      </g>
     </g>
     <g id="text_12">
      <!-- $\mathdefault{3\times10^{0}}$ -->
      <g style="fill: #667085" transform="translate(28.73125 72.769227) scale(0.12 -0.12)">
       <use xlink:href="#PingFangSC-Regular-16" transform="translate(0 0.742188)"/>
       <use xlink:href="#PingFangSC-Regular-9a" transform="translate(79.482361 0.742188)"/>
       <use xlink:href="#PingFangSC-Regular-14" transform="translate(159.464722 0.742188)"/>
       <use xlink:href="#PingFangSC-Regular-13" transform="translate(199.564682 0.742188)"/>
       <use xlink:href="#PingFangSC-Regular-13" transform="translate(260.521652 42.042187) scale(0.7)"/>
      </g>
     </g>
    </g>
    <g id="ytick_11">
     <g id="line2d_31">
      <path d="M 70.85125 40.867753
L 758.39625 40.867753
" clip-path="url(#paa48c82c54)" style="fill: none; stroke: #d9e1ec; stroke-width: 0.8; stroke-linecap: square"/>
     </g>
     <g id="line2d_32">
      <g>
       <use xlink:href="#m1b1f015167" x="70.85125" y="40.867753" style="fill: #667085; stroke: #667085; stroke-width: 0.6"/>
      </g>
     </g>
     <g id="text_13">
      <!-- $\mathdefault{4\times10^{0}}$ -->
      <g style="fill: #667085" transform="translate(28.73125 46.447753) scale(0.12 -0.12)">
       <use xlink:href="#PingFangSC-Regular-17" transform="translate(0 0.742188)"/>
       <use xlink:href="#PingFangSC-Regular-9a" transform="translate(79.482361 0.742188)"/>
       <use xlink:href="#PingFangSC-Regular-14" transform="translate(159.464722 0.742188)"/>
       <use xlink:href="#PingFangSC-Regular-13" transform="translate(199.564682 0.742188)"/>
       <use xlink:href="#PingFangSC-Regular-13" transform="translate(260.521652 42.042187) scale(0.7)"/>
      </g>
     </g>
    </g>
    <g id="text_14">
     <!-- 耗时（秒，对数坐标） -->
     <g style="fill: #13213c" transform="translate(17.52 236.08) rotate(-90) scale(0.12 -0.12)">
      <defs>
       <path id="PingFangSC-Regular-1619" d="M 499 4621
L 499 4198
L 1331 4198
L 1331 3571
L 531 3571
L 531 3162
L 1331 3162
L 1331 2496
L 352 2496
L 352 2074
L 1331 2074
C 1114 1472 755 934 243 461
L 435 -6
C 800 390 1101 826 1331 1312
L 1331 -634
L 1754 -634
L 1754 1325
C 1965 1107 2221 806 2515 429
L 2758 800
C 2419 1139 2086 1440 1754 1702
L 1754 2074
L 2714 2074
L 2714 2496
L 1754 2496
L 1754 3162
L 2509 3162
L 2509 3571
L 1754 3571
L 1754 4198
L 2630 4198
L 2630 4621
L 1754 4621
L 1754 5222
L 1331 5222
L 1331 4621
L 499 4621
z
M 5344 -525
C 5574 -525 5741 -474 5843 -371
C 5965 -250 6048 83 6086 627
L 5677 762
C 5651 352 5600 102 5536 19
C 5485 -51 5389 -90 5261 -90
L 4582 -90
C 4448 -90 4384 -19 4384 122
L 4384 1459
L 6010 1773
L 5939 2221
L 4384 1914
L 4384 2918
L 5715 3181
L 5645 3629
L 4384 3379
L 4384 4410
C 4819 4518 5229 4659 5626 4826
L 5402 5197
C 4685 4883 3802 4678 2739 4576
L 2880 4173
C 3245 4198 3597 4250 3942 4314
L 3942 3290
L 2848 3078
L 2918 2630
L 3942 2829
L 3942 1830
L 2650 1574
L 2720 1133
L 3942 1370
L 3942 26
C 3942 -339 4102 -525 4435 -525
L 5344 -525
z
" transform="scale(0.015625)"/>
       <path id="PingFangSC-Regular-481" d="M 5440 5293
C 5158 4883 4941 4442 4781 3974
C 4589 3424 4499 2867 4499 2298
C 4499 1741 4589 1184 4781 634
C 4941 173 5158 -269 5440 -685
L 5888 -685
C 5632 -256 5427 186 5280 640
C 5088 1203 4998 1760 4998 2304
C 4998 2854 5088 3405 5280 3968
C 5427 4429 5632 4870 5888 5293
L 5440 5293
z
" transform="scale(0.015625)"/>
       <path id="PingFangSC-Regular-1441" d="M 3987 5216
L 3987 1581
L 4461 1581
L 4461 5216
L 3987 5216
z
M 3136 4275
C 2995 3533 2765 2861 2451 2253
L 2848 2003
C 3162 2618 3405 3341 3578 4179
L 3136 4275
z
M 5171 4422
L 4768 4288
C 5126 3776 5453 3181 5754 2502
L 6170 2688
C 5888 3302 5555 3885 5171 4422
z
M 5395 2419
C 4870 1062 3808 186 2208 -211
L 2451 -621
C 4109 -198 5222 742 5786 2189
L 5395 2419
z
M 378 3539
L 378 3091
L 1286 3091
C 1069 2381 717 1747 224 1184
L 422 672
C 781 1146 1075 1677 1306 2253
L 1306 -614
L 1747 -614
L 1747 2227
C 1952 1984 2202 1645 2496 1216
L 2746 1606
C 2406 1990 2074 2330 1747 2624
L 1747 3091
L 2541 3091
L 2541 3539
L 1747 3539
L 1747 4474
C 2067 4544 2362 4621 2637 4710
L 2477 5139
C 1875 4928 1178 4787 397 4710
L 486 4275
C 768 4307 1037 4346 1306 4390
L 1306 3539
L 378 3539
z
" transform="scale(0.015625)"/>
       <path id="PingFangSC-Regular-485" d="M 1190 762
C 1062 762 966 730 890 653
C 813 582 774 486 774 365
C 774 256 813 160 890 83
C 966 6 1056 -32 1165 -32
C 1229 -32 1280 -19 1306 -6
C 1306 -160 1254 -301 1165 -435
C 1062 -563 928 -659 762 -717
L 762 -1030
C 1030 -960 1254 -819 1421 -614
C 1587 -397 1670 -147 1670 134
C 1670 320 1626 467 1542 582
C 1453 704 1331 762 1190 762
z
" transform="scale(0.015625)"/>
       <path id="PingFangSC-Regular-a52" d="M 3053 3987
L 3053 3546
L 4909 3546
L 4909 141
C 4909 -83 4787 -198 4550 -198
C 4256 -198 3942 -186 3610 -166
L 3706 -621
L 4710 -621
C 5146 -621 5370 -403 5370 26
L 5370 3546
L 6080 3546
L 6080 3987
L 5370 3987
L 5370 5242
L 4909 5242
L 4909 3987
L 3053 3987
z
M 762 3571
L 454 3283
C 902 2784 1312 2291 1670 1811
C 1338 1184 870 640 269 179
L 538 -224
C 1126 262 1600 813 1952 1427
C 2182 1101 2394 781 2586 461
L 2918 794
C 2694 1152 2445 1517 2176 1875
C 2509 2586 2688 3379 2720 4250
L 2720 4589
L 550 4589
L 550 4141
L 2304 4141
C 2259 3462 2118 2835 1882 2259
C 1536 2694 1165 3136 762 3571
z
M 3398 2790
L 3046 2534
C 3443 2042 3770 1574 4026 1133
L 4390 1389
C 4160 1798 3827 2266 3398 2790
z
" transform="scale(0.015625)"/>
       <path id="PingFangSC-Regular-dc4" d="M 4211 3808
L 5158 3808
C 5133 2944 4998 2189 4749 1542
C 4493 2080 4288 2726 4128 3475
L 4211 3808
z
M 4538 1082
C 4243 538 3853 96 3354 -250
L 3590 -634
C 4070 -288 4467 141 4774 653
C 5094 115 5478 -320 5926 -640
L 6176 -262
C 5715 51 5325 493 4992 1069
C 5350 1824 5549 2739 5581 3808
L 5997 3808
L 5997 4250
L 4307 4250
C 4358 4531 4410 4838 4448 5165
L 4000 5242
C 3872 4026 3616 3059 3238 2342
L 3526 1990
C 3661 2221 3789 2483 3904 2778
C 4077 2138 4288 1574 4538 1082
z
M 1504 2253
C 1459 2125 1408 1990 1350 1850
L 416 1850
L 416 1446
L 1171 1446
C 1043 1190 896 928 730 646
C 1043 531 1338 410 1619 288
C 1248 77 794 -96 269 -237
L 486 -621
C 1126 -442 1658 -205 2080 90
C 2458 -77 2784 -250 3066 -416
L 3315 -58
C 3034 96 2739 237 2432 378
C 2765 685 3002 1050 3142 1472
L 3142 1850
L 1805 1850
C 1843 1965 1888 2080 1933 2202
L 1504 2253
z
M 2010 557
C 1779 653 1536 742 1280 832
C 1408 1024 1523 1229 1626 1446
L 2726 1446
C 2573 1114 2330 813 2010 557
z
M 922 5107
L 557 4986
C 710 4742 851 4467 986 4154
L 1318 4307
C 1203 4589 1075 4858 922 5107
z
M 2867 5126
C 2752 4858 2586 4589 2381 4314
L 2707 4147
C 2912 4416 3072 4691 3200 4973
L 2867 5126
z
M 429 4000
L 429 3597
L 1338 3597
C 1146 3245 800 2925 307 2637
L 531 2266
C 1082 2637 1466 3072 1677 3578
L 1677 2362
L 2106 2362
L 2106 3194
C 2336 3040 2611 2835 2931 2579
L 3168 2938
C 2810 3155 2451 3354 2106 3526
L 2106 3597
L 3270 3597
L 3270 4000
L 2106 4000
L 2106 5222
L 1677 5222
L 1677 4000
L 429 4000
z
" transform="scale(0.015625)"/>
       <path id="PingFangSC-Regular-8d6" d="M 819 1670
L 819 1235
L 2970 1235
L 2970 77
L 442 77
L 442 -371
L 5958 -371
L 5958 77
L 3430 77
L 3430 1235
L 5587 1235
L 5587 1670
L 3430 1670
L 3430 5184
L 2970 5184
L 2970 1670
L 819 1670
z
M 4691 3245
C 4947 2982 5267 2605 5651 2118
L 5920 2522
C 5549 2918 5184 3270 4826 3578
C 4947 3910 5050 4282 5126 4678
L 4685 4755
C 4512 3802 4179 3046 3680 2483
L 3974 2125
C 4256 2432 4499 2810 4691 3245
z
M 1587 4774
C 1376 3763 960 2957 346 2368
L 640 2010
C 998 2355 1306 2771 1549 3270
C 1786 3002 2086 2618 2445 2106
L 2720 2509
C 2374 2912 2029 3277 1696 3597
C 1830 3930 1939 4301 2029 4698
L 1587 4774
z
" transform="scale(0.015625)"/>
       <path id="PingFangSC-Regular-ebd" d="M 1222 5210
L 1222 4000
L 442 4000
L 442 3558
L 1222 3558
C 1024 2752 698 2029 237 1402
L 435 902
C 755 1402 1018 1952 1222 2554
L 1222 -634
L 1677 -634
L 1677 2573
C 1869 2330 2093 2010 2355 1606
L 2618 1997
C 2304 2387 1990 2746 1677 3066
L 1677 3558
L 2419 3558
L 2419 4000
L 1677 4000
L 1677 5210
L 1222 5210
z
M 3110 2317
C 2931 1523 2643 806 2246 160
L 2643 -96
C 3027 557 3328 1325 3533 2221
L 3110 2317
z
M 5427 2349
L 5011 2214
C 5261 1523 5491 736 5702 -154
L 6118 32
C 5926 851 5696 1626 5427 2349
z
M 3994 -570
C 4365 -570 4557 -378 4557 0
L 4557 2848
L 6125 2848
L 6125 3290
L 2534 3290
L 2534 2848
L 4096 2848
L 4096 115
C 4096 -70 4006 -166 3834 -166
C 3648 -166 3456 -154 3251 -141
L 3341 -570
L 3994 -570
z
M 2874 4845
L 2874 4410
L 5792 4410
L 5792 4845
L 2874 4845
z
" transform="scale(0.015625)"/>
       <path id="PingFangSC-Regular-482" d="M 512 5293
C 768 4870 966 4429 1120 3968
C 1306 3405 1402 2854 1402 2304
C 1402 1760 1306 1203 1120 640
C 966 186 768 -256 512 -685
L 960 -685
C 1235 -269 1453 173 1619 634
C 1805 1184 1901 1741 1901 2298
C 1901 2867 1805 3424 1619 3974
C 1453 4442 1235 4883 960 5293
L 512 5293
z
" transform="scale(0.015625)"/>
      </defs>
      <use xlink:href="#PingFangSC-Regular-1619"/>
      <use xlink:href="#PingFangSC-Regular-df8" transform="translate(100 0)"/>
      <use xlink:href="#PingFangSC-Regular-481" transform="translate(200 0)"/>
      <use xlink:href="#PingFangSC-Regular-1441" transform="translate(300 0)"/>
      <use xlink:href="#PingFangSC-Regular-485" transform="translate(400 0)"/>
      <use xlink:href="#PingFangSC-Regular-a52" transform="translate(500 0)"/>
      <use xlink:href="#PingFangSC-Regular-dc4" transform="translate(600 0)"/>
      <use xlink:href="#PingFangSC-Regular-8d6" transform="translate(700 0)"/>
      <use xlink:href="#PingFangSC-Regular-ebd" transform="translate(800 0)"/>
      <use xlink:href="#PingFangSC-Regular-482" transform="translate(900 0)"/>
     </g>
    </g>
   </g>
   <g id="line2d_33">
    <path d="M 98.630846 300.989091
L 237.528826 299.431691
L 376.426806 293.093455
L 515.324785 299.046449
L 654.222765 299.818563
" clip-path="url(#paa48c82c54)" style="fill: none; stroke: #f28e2b; stroke-width: 2.2; stroke-linecap: square"/>
    <defs>
     <path id="m4a6a4168e0" d="M 0 3
C 0.795609 3 1.55874 2.683901 2.12132 2.12132
C 2.683901 1.55874 3 0.795609 3 0
C 3 -0.795609 2.683901 -1.55874 2.12132 -2.12132
C 1.55874 -2.683901 0.795609 -3 0 -3
C -0.795609 -3 -1.55874 -2.683901 -2.12132 -2.12132
C -2.683901 -1.55874 -3 -0.795609 -3 0
C -3 0.795609 -2.683901 1.55874 -2.12132 2.12132
C -1.55874 2.683901 -0.795609 3 0 3
z
" style="stroke: #f28e2b"/>
    </defs>
    <g clip-path="url(#paa48c82c54)">
     <use xlink:href="#m4a6a4168e0" x="98.630846" y="300.989091" style="fill: #f28e2b; stroke: #f28e2b"/>
     <use xlink:href="#m4a6a4168e0" x="237.528826" y="299.431691" style="fill: #f28e2b; stroke: #f28e2b"/>
     <use xlink:href="#m4a6a4168e0" x="376.426806" y="293.093455" style="fill: #f28e2b; stroke: #f28e2b"/>
     <use xlink:href="#m4a6a4168e0" x="515.324785" y="299.046449" style="fill: #f28e2b; stroke: #f28e2b"/>
     <use xlink:href="#m4a6a4168e0" x="654.222765" y="299.818563" style="fill: #f28e2b; stroke: #f28e2b"/>
    </g>
   </g>
   <g id="LineCollection_1">
    <path d="M 98.630846 299.431691
L 654.222765 299.431691
" clip-path="url(#paa48c82c54)" style="fill: none; stroke-dasharray: 4.44,1.92; stroke-dashoffset: 0; stroke: #f28e2b; stroke-opacity: 0.8; stroke-width: 1.2"/>
   </g>
   <g id="line2d_34">
    <path d="M 98.630846 290.606058
L 237.528826 286.158696
L 376.426806 294.912501
L 515.324785 261.182761
L 654.222765 254.565782
" clip-path="url(#paa48c82c54)" style="fill: none; stroke: #1769e0; stroke-width: 2.2; stroke-linecap: square"/>
    <defs>
     <path id="m9bbc268337" d="M 0 3
C 0.795609 3 1.55874 2.683901 2.12132 2.12132
C 2.683901 1.55874 3 0.795609 3 0
C 3 -0.795609 2.683901 -1.55874 2.12132 -2.12132
C 1.55874 -2.683901 0.795609 -3 0 -3
C -0.795609 -3 -1.55874 -2.683901 -2.12132 -2.12132
C -2.683901 -1.55874 -3 -0.795609 -3 0
C -3 0.795609 -2.683901 1.55874 -2.12132 2.12132
C -1.55874 2.683901 -0.795609 3 0 3
z
" style="stroke: #1769e0"/>
    </defs>
    <g clip-path="url(#paa48c82c54)">
     <use xlink:href="#m9bbc268337" x="98.630846" y="290.606058" style="fill: #1769e0; stroke: #1769e0"/>
     <use xlink:href="#m9bbc268337" x="237.528826" y="286.158696" style="fill: #1769e0; stroke: #1769e0"/>
     <use xlink:href="#m9bbc268337" x="376.426806" y="294.912501" style="fill: #1769e0; stroke: #1769e0"/>
     <use xlink:href="#m9bbc268337" x="515.324785" y="261.182761" style="fill: #1769e0; stroke: #1769e0"/>
     <use xlink:href="#m9bbc268337" x="654.222765" y="254.565782" style="fill: #1769e0; stroke: #1769e0"/>
    </g>
   </g>
   <g id="LineCollection_2">
    <path d="M 98.630846 286.158696
L 654.222765 286.158696
" clip-path="url(#paa48c82c54)" style="fill: none; stroke-dasharray: 4.44,1.92; stroke-dashoffset: 0; stroke: #1769e0; stroke-opacity: 0.8; stroke-width: 1.2"/>
   </g>
   <g id="line2d_35">
    <path d="M 98.630846 51.170909
L 237.528826 61.227108
L 376.426806 59.809431
L 515.324785 61.084347
L 654.222765 65.947263
" clip-path="url(#paa48c82c54)" style="fill: none; stroke: #667085; stroke-width: 2.2; stroke-linecap: square"/>
    <defs>
     <path id="m9e394fa362" d="M 0 3
C 0.795609 3 1.55874 2.683901 2.12132 2.12132
C 2.683901 1.55874 3 0.795609 3 0
C 3 -0.795609 2.683901 -1.55874 2.12132 -2.12132
C 1.55874 -2.683901 0.795609 -3 0 -3
C -0.795609 -3 -1.55874 -2.683901 -2.12132 -2.12132
C -2.683901 -1.55874 -3 -0.795609 -3 0
C -3 0.795609 -2.683901 1.55874 -2.12132 2.12132
C -1.55874 2.683901 -0.795609 3 0 3
z
" style="stroke: #667085"/>
    </defs>
    <g clip-path="url(#paa48c82c54)">
     <use xlink:href="#m9e394fa362" x="98.630846" y="51.170909" style="fill: #667085; stroke: #667085"/>
     <use xlink:href="#m9e394fa362" x="237.528826" y="61.227108" style="fill: #667085; stroke: #667085"/>
     <use xlink:href="#m9e394fa362" x="376.426806" y="59.809431" style="fill: #667085; stroke: #667085"/>
     <use xlink:href="#m9e394fa362" x="515.324785" y="61.084347" style="fill: #667085; stroke: #667085"/>
     <use xlink:href="#m9e394fa362" x="654.222765" y="65.947263" style="fill: #667085; stroke: #667085"/>
    </g>
   </g>
   <g id="LineCollection_3">
    <path d="M 98.630846 61.084347
L 654.222765 61.084347
" clip-path="url(#paa48c82c54)" style="fill: none; stroke-dasharray: 4.44,1.92; stroke-dashoffset: 0; stroke: #667085; stroke-opacity: 0.8; stroke-width: 1.2"/>
   </g>
   <g id="patch_3">
    <path d="M 70.85125 313.48
L 70.85125 38.68
" style="fill: none; stroke: #000000; stroke-width: 0.8; stroke-linejoin: miter; stroke-linecap: square"/>
   </g>
   <g id="patch_4">
    <path d="M 70.85125 313.48
L 758.39625 313.48
" style="fill: none; stroke: #000000; stroke-width: 0.8; stroke-linejoin: miter; stroke-linecap: square"/>
   </g>
   <g id="text_15">
    <!-- BMSSP  0.236s -->
    <g style="fill: #f28e2b" transform="translate(670.890523 303.418563) scale(0.1 -0.1)">
     <defs>
      <path id="PingFangSC-Regular-25" d="M 461 4570
L 461 0
L 2490 0
C 2957 0 3328 96 3597 275
C 3910 493 4070 826 4070 1274
C 4070 1581 3981 1824 3814 2016
C 3648 2208 3418 2336 3117 2387
C 3347 2464 3533 2586 3674 2752
C 3808 2938 3878 3162 3878 3418
C 3878 3776 3757 4058 3514 4262
C 3264 4467 2925 4570 2502 4570
L 461 4570
z
M 986 4128
L 2381 4128
C 2701 4128 2944 4070 3110 3942
C 3277 3814 3360 3622 3360 3366
C 3360 3104 3270 2906 3104 2771
C 2938 2643 2694 2573 2374 2573
L 986 2573
L 986 4128
z
M 986 2138
L 2445 2138
C 2797 2138 3066 2074 3251 1933
C 3443 1792 3546 1574 3546 1280
C 3546 986 3430 762 3206 621
C 3014 506 2765 442 2445 442
L 986 442
L 986 2138
z
" transform="scale(0.015625)"/>
      <path id="PingFangSC-Regular-30" d="M 461 4570
L 461 0
L 986 0
L 986 3635
L 1005 3635
L 2586 0
L 3059 0
L 4640 3635
L 4659 3635
L 4659 0
L 5184 0
L 5184 4570
L 4531 4570
L 2835 672
L 2816 672
L 1114 4570
L 461 4570
z
" transform="scale(0.015625)"/>
      <path id="PingFangSC-Regular-36" d="M 1997 4659
C 1523 4659 1133 4557 832 4352
C 493 4134 326 3821 326 3424
C 326 3040 499 2746 851 2541
C 998 2464 1350 2336 1901 2170
C 2413 2022 2739 1914 2867 1837
C 3168 1677 3322 1453 3322 1165
C 3322 922 3206 730 2976 589
C 2746 448 2438 378 2067 378
C 1658 378 1350 467 1139 634
C 909 819 768 1114 723 1510
L 205 1510
C 243 947 442 531 800 256
C 1107 26 1530 -90 2067 -90
C 2611 -90 3040 26 3360 250
C 3680 480 3840 800 3840 1197
C 3840 1613 3648 1933 3270 2163
C 3078 2278 2682 2426 2080 2605
C 1638 2733 1357 2829 1242 2893
C 979 3034 851 3219 851 3450
C 851 3712 960 3904 1178 4032
C 1370 4147 1632 4198 1971 4198
C 2342 4198 2630 4122 2835 3955
C 3034 3795 3162 3552 3219 3219
L 3738 3219
C 3693 3699 3520 4064 3213 4307
C 2918 4544 2509 4659 1997 4659
z
" transform="scale(0.015625)"/>
      <path id="PingFangSC-Regular-33" d="M 461 4570
L 461 0
L 986 0
L 986 1869
L 2323 1869
C 3373 1869 3904 2323 3904 3226
C 3904 4122 3379 4570 2330 4570
L 461 4570
z
M 986 4115
L 2298 4115
C 2662 4115 2931 4045 3110 3891
C 3290 3757 3379 3533 3379 3226
C 3379 2918 3290 2694 3117 2547
C 2938 2400 2669 2323 2298 2323
L 986 2323
L 986 4115
z
" transform="scale(0.015625)"/>
      <path id="PingFangSC-Regular-3" transform="scale(0.015625)"/>
      <path id="PingFangSC-Regular-11" d="M 845 762
C 730 762 640 723 570 646
C 493 570 454 480 454 365
C 454 256 493 166 570 90
C 640 13 730 -26 845 -26
C 947 -26 1043 13 1120 90
C 1197 166 1235 256 1235 365
C 1235 480 1197 570 1120 646
C 1043 723 947 762 845 762
z
" transform="scale(0.015625)"/>
      <path id="PingFangSC-Regular-56" d="M 1568 3398
C 1197 3398 890 3315 659 3149
C 410 2982 288 2765 288 2483
C 288 2202 410 1990 666 1837
C 819 1734 1094 1638 1485 1542
C 1843 1453 2080 1382 2189 1331
C 2394 1229 2502 1088 2502 902
C 2502 531 2202 339 1613 339
C 1331 339 1120 390 979 493
C 838 608 742 794 704 1056
L 205 1056
C 282 294 755 -90 1626 -90
C 2560 -90 3027 256 3027 934
C 3027 1222 2893 1446 2630 1613
C 2458 1722 2176 1824 1779 1920
C 1446 2010 1216 2080 1094 2138
C 902 2234 813 2355 813 2496
C 813 2643 883 2758 1024 2842
C 1152 2931 1331 2970 1562 2970
C 1824 2970 2029 2918 2170 2816
C 2298 2726 2381 2573 2426 2368
L 2925 2368
C 2835 3059 2387 3398 1568 3398
z
" transform="scale(0.015625)"/>
     </defs>
     <use xlink:href="#PingFangSC-Regular-25"/>
     <use xlink:href="#PingFangSC-Regular-30" transform="translate(67.703125 0)"/>
     <use xlink:href="#PingFangSC-Regular-36" transform="translate(155.90625 0)"/>
     <use xlink:href="#PingFangSC-Regular-36" transform="translate(219.109375 0)"/>
     <use xlink:href="#PingFangSC-Regular-33" transform="translate(282.3125 0)"/>
     <use xlink:href="#PingFangSC-Regular-3" transform="translate(346.515625 0)"/>
     <use xlink:href="#PingFangSC-Regular-3" transform="translate(379.8125 0)"/>
     <use xlink:href="#PingFangSC-Regular-13" transform="translate(413.109375 0)"/>
     <use xlink:href="#PingFangSC-Regular-11" transform="translate(473.109375 0)"/>
     <use xlink:href="#PingFangSC-Regular-15" transform="translate(499.515625 0)"/>
     <use xlink:href="#PingFangSC-Regular-16" transform="translate(559.515625 0)"/>
     <use xlink:href="#PingFangSC-Regular-19" transform="translate(619.515625 0)"/>
     <use xlink:href="#PingFangSC-Regular-56" transform="translate(679.515625 0)"/>
    </g>
   </g>
   <g id="text_16">
    <!-- Frontier  0.387s -->
    <g style="fill: #1769e0" transform="translate(670.890523 258.165782) scale(0.1 -0.1)">
     <defs>
      <path id="PingFangSC-Regular-29" d="M 461 4570
L 461 0
L 986 0
L 986 2125
L 3386 2125
L 3386 2579
L 986 2579
L 986 4115
L 3520 4115
L 3520 4570
L 461 4570
z
" transform="scale(0.015625)"/>
      <path id="PingFangSC-Regular-55" d="M 1850 3398
C 1619 3398 1421 3328 1248 3187
C 1107 3078 992 2925 902 2733
L 902 3309
L 397 3309
L 397 0
L 902 0
L 902 1754
C 902 2061 986 2323 1165 2541
C 1338 2771 1555 2880 1811 2880
C 1971 2880 2138 2861 2304 2810
L 2304 3322
C 2182 3373 2029 3398 1850 3398
z
" transform="scale(0.015625)"/>
      <path id="PingFangSC-Regular-52" d="M 1875 3398
C 1376 3398 986 3232 691 2886
C 410 2560 269 2150 269 1651
C 269 1158 410 749 691 429
C 986 83 1376 -90 1875 -90
C 2368 -90 2765 83 3066 429
C 3341 749 3482 1158 3482 1651
C 3482 2150 3341 2560 3059 2886
C 2765 3232 2368 3398 1875 3398
z
M 1875 2970
C 2221 2970 2496 2835 2701 2566
C 2874 2323 2963 2022 2963 1651
C 2963 1293 2874 986 2701 742
C 2496 474 2221 339 1875 339
C 1523 339 1248 474 1056 742
C 877 986 794 1286 794 1651
C 794 2022 877 2323 1056 2566
C 1248 2835 1523 2970 1875 2970
z
" transform="scale(0.015625)"/>
      <path id="PingFangSC-Regular-51" d="M 1946 3398
C 1728 3398 1530 3347 1350 3245
C 1171 3149 1024 3008 909 2822
L 909 3309
L 397 3309
L 397 0
L 909 0
L 909 1997
C 928 2298 1024 2534 1203 2714
C 1370 2880 1568 2963 1798 2963
C 2374 2963 2669 2643 2669 1997
L 2669 0
L 3181 0
L 3181 2035
C 3181 2944 2765 3398 1946 3398
z
" transform="scale(0.015625)"/>
      <path id="PingFangSC-Regular-57" d="M 1280 4378
L 774 4166
L 774 3309
L 109 3309
L 109 2880
L 774 2880
L 774 774
C 774 525 826 339 934 211
C 1050 70 1248 0 1517 0
L 2016 0
L 2016 429
L 1594 429
C 1478 429 1395 461 1350 512
C 1299 563 1280 653 1280 774
L 1280 2880
L 2099 2880
L 2099 3309
L 1280 3309
L 1280 4378
z
" transform="scale(0.015625)"/>
      <path id="PingFangSC-Regular-4c" d="M 819 4557
C 710 4557 621 4525 544 4448
C 467 4384 435 4294 435 4179
C 435 4070 467 3981 544 3904
C 621 3834 710 3795 819 3795
C 928 3795 1018 3834 1094 3904
C 1171 3981 1210 4070 1210 4179
C 1210 4294 1171 4384 1094 4448
C 1018 4525 928 4557 819 4557
z
M 563 3309
L 563 0
L 1075 0
L 1075 3309
L 563 3309
z
" transform="scale(0.015625)"/>
      <path id="PingFangSC-Regular-48" d="M 1760 3398
C 1280 3398 902 3226 621 2880
C 339 2554 205 2144 205 1658
C 205 1120 346 698 640 378
C 922 70 1306 -90 1779 -90
C 2208 -90 2560 38 2835 282
C 3059 486 3206 742 3283 1062
L 2771 1062
C 2688 832 2579 659 2438 544
C 2272 410 2048 339 1779 339
C 1466 339 1216 442 1037 646
C 858 851 762 1139 736 1510
L 3347 1510
C 3334 2086 3206 2541 2963 2861
C 2694 3219 2291 3398 1760 3398
z
M 1773 2970
C 2400 2970 2752 2618 2816 1907
L 749 1907
C 781 2234 883 2490 1062 2682
C 1242 2874 1478 2970 1773 2970
z
" transform="scale(0.015625)"/>
      <path id="PingFangSC-Regular-1b" d="M 1920 4659
C 1440 4659 1069 4538 800 4288
C 550 4064 429 3782 429 3450
C 429 3206 486 3002 602 2835
C 723 2656 902 2522 1146 2438
L 1146 2426
C 902 2368 704 2234 538 2029
C 358 1811 269 1555 269 1261
C 269 858 410 531 691 288
C 979 38 1389 -90 1920 -90
C 2445 -90 2854 38 3149 288
C 3430 531 3571 858 3571 1261
C 3571 1555 3482 1811 3302 2029
C 3136 2234 2931 2368 2694 2426
L 2694 2438
C 2931 2522 3110 2656 3238 2835
C 3354 3002 3411 3206 3411 3450
C 3411 3782 3283 4064 3040 4288
C 2771 4538 2394 4659 1920 4659
z
M 1920 4230
C 2240 4230 2496 4147 2682 3981
C 2835 3840 2918 3654 2918 3430
C 2918 3200 2848 3008 2707 2867
C 2534 2701 2272 2611 1920 2611
C 1562 2611 1299 2701 1133 2867
C 992 3008 922 3200 922 3430
C 922 3654 998 3840 1158 3981
C 1338 4147 1594 4230 1920 4230
z
M 1920 2202
C 2285 2202 2573 2112 2778 1926
C 2957 1760 3053 1536 3053 1261
C 3053 992 2957 774 2778 608
C 2573 429 2291 339 1920 339
C 1549 339 1261 429 1069 602
C 877 768 787 992 787 1261
C 787 1536 877 1760 1069 1926
C 1267 2112 1549 2202 1920 2202
z
" transform="scale(0.015625)"/>
      <path id="PingFangSC-Regular-1a" d="M 218 4570
L 218 4090
L 2682 4090
L 979 0
L 1536 0
L 3219 4141
L 3219 4570
L 218 4570
z
" transform="scale(0.015625)"/>
     </defs>
     <use xlink:href="#PingFangSC-Regular-29"/>
     <use xlink:href="#PingFangSC-Regular-55" transform="translate(57.703125 0)"/>
     <use xlink:href="#PingFangSC-Regular-52" transform="translate(94.203125 0)"/>
     <use xlink:href="#PingFangSC-Regular-51" transform="translate(152.796875 0)"/>
     <use xlink:href="#PingFangSC-Regular-57" transform="translate(208.703125 0)"/>
     <use xlink:href="#PingFangSC-Regular-4c" transform="translate(244.203125 0)"/>
     <use xlink:href="#PingFangSC-Regular-48" transform="translate(269.796875 0)"/>
     <use xlink:href="#PingFangSC-Regular-55" transform="translate(325.296875 0)"/>
     <use xlink:href="#PingFangSC-Regular-3" transform="translate(361.796875 0)"/>
     <use xlink:href="#PingFangSC-Regular-3" transform="translate(395.09375 0)"/>
     <use xlink:href="#PingFangSC-Regular-13" transform="translate(428.390625 0)"/>
     <use xlink:href="#PingFangSC-Regular-11" transform="translate(488.390625 0)"/>
     <use xlink:href="#PingFangSC-Regular-16" transform="translate(514.796875 0)"/>
     <use xlink:href="#PingFangSC-Regular-1b" transform="translate(574.796875 0)"/>
     <use xlink:href="#PingFangSC-Regular-1a" transform="translate(634.796875 0)"/>
     <use xlink:href="#PingFangSC-Regular-56" transform="translate(689.5 0)"/>
    </g>
   </g>
   <g id="text_17">
    <!-- Dijkstra  3.041s -->
    <g style="fill: #667085" transform="translate(670.890523 69.257419) scale(0.1 -0.1)">
     <defs>
      <path id="PingFangSC-Regular-27" d="M 461 4570
L 461 0
L 2048 0
C 2765 0 3315 211 3699 627
C 4064 1024 4250 1581 4250 2285
C 4250 3002 4077 3558 3738 3942
C 3366 4365 2822 4570 2099 4570
L 461 4570
z
M 986 4115
L 2016 4115
C 2618 4115 3053 3962 3334 3648
C 3597 3354 3731 2899 3731 2285
C 3731 1690 3584 1235 3302 928
C 3002 614 2554 454 1958 454
L 986 454
L 986 4115
z
" transform="scale(0.015625)"/>
      <path id="PingFangSC-Regular-4d" d="M 883 4557
C 774 4557 685 4525 608 4448
C 531 4384 499 4294 499 4179
C 499 4070 531 3981 608 3904
C 685 3834 774 3795 883 3795
C 992 3795 1088 3834 1165 3904
C 1235 3981 1274 4070 1274 4179
C 1274 4294 1235 4384 1165 4448
C 1088 4525 992 4557 883 4557
z
M 627 3309
L 627 -365
C 627 -678 474 -838 173 -838
L -96 -838
L -96 -1267
L 211 -1267
C 826 -1267 1139 -973 1139 -384
L 1139 3309
L 627 3309
z
" transform="scale(0.015625)"/>
      <path id="PingFangSC-Regular-4e" d="M 397 4659
L 397 0
L 909 0
L 909 1171
L 1434 1645
L 2726 0
L 3386 0
L 1786 1978
L 3245 3309
L 2566 3309
L 909 1773
L 909 4659
L 397 4659
z
" transform="scale(0.015625)"/>
      <path id="PingFangSC-Regular-44" d="M 1837 3398
C 1440 3398 1126 3322 883 3168
C 614 3002 442 2739 371 2394
L 877 2355
C 928 2566 1037 2726 1210 2829
C 1363 2931 1562 2976 1805 2976
C 2381 2976 2669 2701 2669 2144
L 2669 1971
L 1875 1958
C 1376 1952 992 1856 723 1677
C 416 1485 269 1203 269 826
C 269 557 371 333 576 160
C 774 -6 1037 -90 1370 -90
C 1677 -90 1952 -19 2195 115
C 2400 230 2573 378 2701 557
L 2701 0
L 3181 0
L 3181 2125
C 3181 2509 3078 2810 2886 3027
C 2656 3277 2310 3398 1837 3398
z
M 2669 1587
L 2669 1306
C 2669 1050 2547 819 2310 621
C 2067 416 1792 314 1478 314
C 1274 314 1107 365 979 461
C 851 563 794 685 794 838
C 794 1318 1165 1562 1907 1574
L 2669 1587
z
" transform="scale(0.015625)"/>
     </defs>
     <use xlink:href="#PingFangSC-Regular-27"/>
     <use xlink:href="#PingFangSC-Regular-4c" transform="translate(70.59375 0)"/>
     <use xlink:href="#PingFangSC-Regular-4d" transform="translate(96.1875 0)"/>
     <use xlink:href="#PingFangSC-Regular-4e" transform="translate(122.890625 0)"/>
     <use xlink:href="#PingFangSC-Regular-56" transform="translate(175.796875 0)"/>
     <use xlink:href="#PingFangSC-Regular-57" transform="translate(226.296875 0)"/>
     <use xlink:href="#PingFangSC-Regular-55" transform="translate(261.796875 0)"/>
     <use xlink:href="#PingFangSC-Regular-44" transform="translate(298.296875 0)"/>
     <use xlink:href="#PingFangSC-Regular-3" transform="translate(354.203125 0)"/>
     <use xlink:href="#PingFangSC-Regular-3" transform="translate(387.5 0)"/>
     <use xlink:href="#PingFangSC-Regular-16" transform="translate(420.796875 0)"/>
     <use xlink:href="#PingFangSC-Regular-11" transform="translate(480.796875 0)"/>
     <use xlink:href="#PingFangSC-Regular-13" transform="translate(507.203125 0)"/>
     <use xlink:href="#PingFangSC-Regular-17" transform="translate(567.203125 0)"/>
     <use xlink:href="#PingFangSC-Regular-14" transform="translate(627.203125 0)"/>
     <use xlink:href="#PingFangSC-Regular-56" transform="translate(667.296875 0)"/>
    </g>
   </g>
   <g id="text_18">
    <!-- datagen-8_1-fb：5 次计时结果 -->
    <g style="fill: #13213c" transform="translate(284.203906 22.68) scale(0.18 -0.18)">
     <defs>
      <path id="PingFangSC-Semibold-47" d="M 2739 4659
L 2739 2854
C 2464 3219 2138 3398 1754 3398
C 1280 3398 902 3226 634 2880
C 378 2560 256 2157 256 1670
C 256 1165 384 749 640 429
C 915 83 1299 -90 1792 -90
C 2227 -90 2560 58 2790 352
L 2790 0
L 3469 0
L 3469 4659
L 2739 4659
z
M 1926 2810
C 2157 2810 2355 2714 2509 2522
C 2675 2317 2765 2035 2765 1683
L 2765 1632
C 2765 1312 2694 1043 2560 838
C 2406 614 2182 499 1901 499
C 1574 499 1338 614 1190 845
C 1062 1037 1005 1312 1005 1670
C 1005 2029 1069 2298 1203 2483
C 1357 2701 1594 2810 1926 2810
z
" transform="scale(0.015625)"/>
      <path id="PingFangSC-Semibold-44" d="M 1888 3398
C 1466 3398 1133 3328 890 3174
C 602 3008 422 2739 352 2374
L 1075 2317
C 1114 2490 1210 2618 1350 2701
C 1472 2778 1632 2810 1837 2810
C 2310 2810 2547 2598 2547 2163
L 2547 2035
L 1824 2016
C 1338 2003 960 1901 691 1709
C 397 1510 256 1222 256 851
C 256 576 358 352 563 173
C 762 0 1030 -90 1376 -90
C 1664 -90 1914 -38 2125 58
C 2310 147 2470 269 2598 435
L 2598 0
L 3277 0
L 3277 2112
C 3277 2515 3174 2822 2970 3034
C 2739 3277 2374 3398 1888 3398
z
M 2547 1510
L 2547 1344
C 2547 1088 2445 877 2253 710
C 2061 550 1824 467 1542 467
C 1382 467 1254 512 1152 589
C 1050 666 1005 762 1005 877
C 1005 1274 1293 1478 1875 1491
L 2547 1510
z
" transform="scale(0.015625)"/>
      <path id="PingFangSC-Semibold-57" d="M 1421 4378
L 691 4077
L 691 3309
L 96 3309
L 96 2707
L 691 2707
L 691 838
C 691 570 755 371 883 230
C 1018 77 1229 0 1517 0
L 2074 0
L 2074 602
L 1638 602
C 1562 602 1510 621 1472 659
C 1434 704 1421 762 1421 838
L 1421 2707
L 2157 2707
L 2157 3309
L 1421 3309
L 1421 4378
z
" transform="scale(0.015625)"/>
      <path id="PingFangSC-Semibold-4a" d="M 1760 3398
C 1312 3398 947 3245 672 2938
C 390 2630 256 2227 256 1728
C 256 1229 390 826 672 525
C 947 230 1312 77 1760 77
C 2170 77 2496 250 2739 589
L 2739 102
C 2739 -486 2464 -781 1914 -781
C 1658 -781 1472 -742 1357 -672
C 1235 -595 1158 -467 1120 -282
L 390 -282
C 454 -653 608 -922 851 -1101
C 1094 -1267 1446 -1357 1914 -1357
C 2950 -1357 3469 -832 3469 211
L 3469 3309
L 2739 3309
L 2739 2906
C 2496 3238 2170 3398 1760 3398
z
M 1875 2810
C 2150 2810 2368 2714 2522 2522
C 2669 2330 2746 2067 2746 1728
C 2746 1395 2669 1139 2522 947
C 2368 768 2150 672 1869 672
C 1549 672 1325 781 1184 992
C 1062 1171 1005 1414 1005 1728
C 1005 2074 1082 2336 1235 2522
C 1389 2714 1600 2810 1875 2810
z
" transform="scale(0.015625)"/>
      <path id="PingFangSC-Semibold-48" d="M 1792 3398
C 1299 3398 909 3232 627 2893
C 333 2560 192 2150 192 1658
C 192 1107 346 678 653 365
C 941 64 1331 -90 1824 -90
C 2266 -90 2630 38 2925 288
C 3155 493 3309 755 3386 1062
L 2656 1062
C 2566 877 2470 742 2362 659
C 2221 557 2042 506 1818 506
C 1555 506 1350 589 1210 749
C 1069 909 986 1146 960 1453
L 3437 1453
C 3437 2048 3302 2515 3040 2848
C 2752 3219 2336 3398 1792 3398
z
M 1811 2803
C 2323 2803 2611 2541 2675 2003
L 973 2003
C 1018 2266 1107 2464 1242 2598
C 1382 2739 1568 2803 1811 2803
z
" transform="scale(0.015625)"/>
      <path id="PingFangSC-Semibold-51" d="M 2093 3398
C 1894 3398 1715 3360 1549 3277
C 1389 3200 1242 3078 1114 2925
L 1114 3309
L 384 3309
L 384 0
L 1114 0
L 1114 1990
C 1139 2253 1229 2458 1382 2598
C 1517 2726 1677 2790 1856 2790
C 2355 2790 2605 2522 2605 1978
L 2605 0
L 3334 0
L 3334 2042
C 3334 2950 2918 3398 2093 3398
z
" transform="scale(0.015625)"/>
      <path id="PingFangSC-Semibold-10" d="M 320 1958
L 320 1357
L 3552 1357
L 3552 1958
L 320 1958
z
" transform="scale(0.015625)"/>
      <path id="PingFangSC-Semibold-1b" d="M 1920 4659
C 1427 4659 1037 4531 749 4269
C 486 4038 358 3750 358 3405
C 358 3174 410 2976 512 2816
C 621 2650 787 2515 1018 2426
L 1018 2413
C 800 2355 621 2227 467 2029
C 288 1811 205 1562 205 1280
C 205 870 352 544 653 288
C 947 38 1370 -90 1920 -90
C 2464 -90 2886 38 3187 288
C 3482 544 3635 870 3635 1280
C 3635 1562 3546 1811 3373 2029
C 3219 2227 3034 2355 2822 2413
L 2822 2426
C 3046 2515 3213 2650 3328 2816
C 3430 2976 3482 3174 3482 3405
C 3482 3750 3347 4038 3091 4269
C 2797 4531 2406 4659 1920 4659
z
M 1920 4064
C 2189 4064 2400 3994 2566 3846
C 2707 3718 2778 3565 2778 3379
C 2778 3168 2720 3002 2605 2880
C 2464 2733 2234 2656 1920 2656
C 1600 2656 1376 2733 1235 2880
C 1120 3002 1062 3168 1062 3379
C 1062 3565 1133 3718 1274 3846
C 1434 3994 1651 4064 1920 4064
z
M 1920 2099
C 2240 2099 2483 2022 2656 1862
C 2810 1722 2893 1523 2893 1280
C 2893 1050 2810 870 2650 730
C 2470 589 2227 512 1920 512
C 1606 512 1370 582 1203 723
C 1030 864 947 1050 947 1280
C 947 1523 1024 1722 1190 1869
C 1357 2022 1600 2099 1920 2099
z
" transform="scale(0.015625)"/>
      <path id="PingFangSC-Semibold-42" d="M 0 -294
L 0 -896
L 3200 -896
L 3200 -294
L 0 -294
z
" transform="scale(0.015625)"/>
      <path id="PingFangSC-Semibold-14" d="M 1485 4570
C 1331 4410 1139 4262 909 4122
C 678 3994 461 3904 256 3853
L 256 3110
C 678 3232 1024 3418 1299 3667
L 1299 0
L 2048 0
L 2048 4570
L 1485 4570
z
" transform="scale(0.015625)"/>
      <path id="PingFangSC-Semibold-49" d="M 1683 4570
C 1389 4570 1158 4493 1005 4326
C 845 4166 768 3942 768 3661
L 768 3309
L 32 3309
L 32 2714
L 768 2714
L 768 0
L 1498 0
L 1498 2714
L 2342 2714
L 2342 3309
L 1498 3309
L 1498 3642
C 1498 3750 1517 3827 1568 3878
C 1619 3930 1690 3955 1786 3955
L 2387 3955
L 2387 4570
L 1683 4570
z
" transform="scale(0.015625)"/>
      <path id="PingFangSC-Semibold-45" d="M 384 4659
L 384 0
L 1062 0
L 1062 352
C 1293 58 1626 -90 2061 -90
C 2547 -90 2931 83 3213 429
C 3469 749 3597 1165 3597 1670
C 3597 2157 3469 2560 3219 2880
C 2944 3226 2573 3398 2099 3398
C 1715 3398 1382 3219 1114 2854
L 1114 4659
L 384 4659
z
M 1926 2810
C 2253 2810 2496 2701 2650 2483
C 2778 2298 2848 2029 2848 1670
C 2848 1312 2784 1037 2662 845
C 2509 614 2272 499 1952 499
C 1664 499 1446 614 1293 838
C 1152 1043 1088 1312 1088 1632
L 1088 1683
C 1088 2035 1171 2317 1344 2522
C 1498 2714 1690 2810 1926 2810
z
" transform="scale(0.015625)"/>
      <path id="PingFangSC-Semibold-493" d="M 1600 4006
C 1459 4006 1338 3962 1242 3859
C 1146 3763 1101 3642 1101 3501
C 1101 3360 1146 3245 1242 3149
C 1338 3053 1459 3002 1600 3002
C 1741 3002 1856 3053 1958 3149
C 2054 3245 2106 3360 2106 3501
C 2106 3642 2054 3763 1958 3859
C 1856 3962 1741 4006 1600 4006
z
M 1600 1664
C 1459 1664 1338 1619 1242 1517
C 1146 1421 1101 1299 1101 1158
C 1101 1018 1146 902 1242 806
C 1338 710 1459 659 1600 659
C 1741 659 1856 710 1958 806
C 2054 902 2106 1018 2106 1158
C 2106 1299 2054 1421 1958 1517
C 1856 1619 1741 1664 1600 1664
z
" transform="scale(0.015625)"/>
      <path id="PingFangSC-Semibold-18" d="M 589 4570
L 339 1997
L 1037 1997
C 1126 2157 1248 2272 1408 2349
C 1549 2419 1722 2451 1920 2451
C 2214 2451 2445 2368 2598 2189
C 2752 2016 2835 1773 2835 1466
C 2835 1184 2739 960 2560 794
C 2374 627 2144 544 1875 544
C 1626 544 1427 602 1286 704
C 1120 826 1024 1011 992 1261
L 256 1261
C 288 838 467 499 800 250
C 1094 26 1453 -90 1869 -90
C 2323 -90 2714 45 3046 314
C 3405 614 3584 998 3584 1472
C 3584 1965 3443 2355 3174 2637
C 2906 2918 2554 3059 2125 3059
C 1920 3059 1734 3027 1568 2963
C 1382 2899 1222 2797 1082 2656
L 1062 2656
L 1190 3910
L 3373 3910
L 3373 4570
L 589 4570
z
" transform="scale(0.015625)"/>
      <path id="PingFangSC-Semibold-3" transform="scale(0.015625)"/>
      <path id="PingFangSC-Semibold-f7a" d="M 3162 3712
L 5267 3712
C 5139 3251 4986 2848 4806 2502
L 5466 2317
C 5683 2848 5856 3379 5990 3917
L 5990 4358
L 3341 4358
C 3398 4614 3450 4896 3494 5190
L 2829 5299
C 2682 4179 2355 3309 1850 2682
L 2406 2291
C 2714 2637 2963 3110 3162 3712
z
M 3648 3354
C 3635 2547 3533 1882 3341 1370
C 3078 768 2528 262 1690 -160
L 2131 -698
C 3104 -198 3718 435 3974 1190
L 4051 1421
C 4448 595 5024 -109 5773 -685
L 6214 -173
C 5267 467 4608 1325 4250 2413
C 4282 2707 4301 3021 4301 3354
L 3648 3354
z
M 800 5024
L 262 4685
C 723 4192 1094 3738 1370 3328
L 1894 3693
C 1638 4077 1274 4518 800 5024
z
M 1338 2259
C 1018 1421 634 602 198 -198
L 819 -480
C 1229 301 1594 1139 1926 2035
L 1338 2259
z
" transform="scale(0.015625)"/>
      <path id="PingFangSC-Semibold-1987" d="M 2266 3411
L 2266 2746
L 3917 2746
L 3917 -685
L 4608 -685
L 4608 2746
L 6176 2746
L 6176 3411
L 4608 3411
L 4608 5267
L 3917 5267
L 3917 3411
L 2266 3411
z
M 1139 5216
L 666 4755
C 1120 4422 1472 4109 1715 3814
L 2176 4282
C 1888 4589 1542 4902 1139 5216
z
M 250 3366
L 250 2726
L 1126 2726
L 1126 454
C 1126 320 1069 205 954 109
L 1210 -493
C 1683 -186 2125 160 2541 544
L 2368 1229
C 2157 1030 1958 851 1773 691
L 1773 3366
L 250 3366
z
" transform="scale(0.015625)"/>
      <path id="PingFangSC-Semibold-df8" d="M 2426 4832
L 435 4832
L 435 -147
L 1088 -147
L 1088 390
L 1786 390
L 1786 6
L 2426 6
L 2426 4832
z
M 1088 1011
L 1088 2336
L 1786 2336
L 1786 1011
L 1088 1011
z
M 1088 2957
L 1088 4224
L 1786 4224
L 1786 2957
L 1088 2957
z
M 3405 2893
L 2854 2547
C 3226 1958 3520 1421 3738 947
L 4294 1331
C 4090 1773 3789 2291 3405 2893
z
M 4781 -602
C 5216 -602 5440 -378 5440 70
L 5440 3507
L 6131 3507
L 6131 4154
L 5440 4154
L 5440 5203
L 4762 5203
L 4762 4154
L 2662 4154
L 2662 3507
L 4762 3507
L 4762 237
C 4762 83 4685 6 4544 6
C 4211 6 3859 19 3488 45
L 3635 -602
L 4781 -602
z
" transform="scale(0.015625)"/>
      <path id="PingFangSC-Semibold-156e" d="M 2637 736
C 1978 506 1210 326 333 192
L 416 -461
C 1248 -314 1984 -122 2637 109
L 2637 736
z
M 1318 5293
C 1094 4608 832 3981 525 3411
C 442 3296 352 3213 250 3168
L 410 2560
C 742 2605 1062 2650 1370 2688
C 1075 2195 832 1850 640 1658
C 557 1581 454 1517 339 1466
L 518 864
C 1158 947 1837 1114 2560 1357
L 2560 1952
C 2138 1811 1728 1696 1318 1606
C 1677 2067 2125 2778 2650 3744
L 2067 3962
C 1939 3725 1824 3501 1715 3290
C 1485 3258 1254 3232 1024 3206
C 1338 3686 1645 4301 1946 5050
L 1318 5293
z
M 2534 4531
L 2534 3891
L 3987 3891
L 3987 3136
L 2746 3136
L 2746 2496
L 5926 2496
L 5926 3136
L 4659 3136
L 4659 3891
L 6112 3891
L 6112 4531
L 4659 4531
L 4659 5235
L 3987 5235
L 3987 4531
L 2534 4531
z
M 5805 2048
L 2880 2048
L 2880 -646
L 3533 -646
L 3533 -410
L 5158 -410
L 5158 -646
L 5805 -646
L 5805 2048
z
M 3533 218
L 3533 1421
L 5158 1421
L 5158 218
L 3533 218
z
" transform="scale(0.015625)"/>
      <path id="PingFangSC-Semibold-e8e" d="M 954 5056
L 954 2426
L 2861 2426
L 2861 1997
L 346 1997
L 346 1376
L 2330 1376
C 1869 858 1165 422 218 77
L 602 -544
C 1626 -45 2381 576 2861 1325
L 2861 -653
L 3539 -653
L 3539 1325
C 3987 646 4717 19 5741 -544
L 6202 38
C 5222 435 4512 883 4064 1376
L 6054 1376
L 6054 1997
L 3539 1997
L 3539 2426
L 5434 2426
L 5434 5056
L 954 5056
z
M 4768 2995
L 3539 2995
L 3539 3437
L 4768 3437
L 4768 2995
z
M 2861 2995
L 1619 2995
L 1619 3437
L 2861 3437
L 2861 2995
z
M 1619 4013
L 1619 4467
L 2861 4467
L 2861 4013
L 1619 4013
z
M 3539 4467
L 4768 4467
L 4768 4013
L 3539 4013
L 3539 4467
z
" transform="scale(0.015625)"/>
     </defs>
     <use xlink:href="#PingFangSC-Semibold-47"/>
     <use xlink:href="#PingFangSC-Semibold-44" transform="translate(60.203125 0)"/>
     <use xlink:href="#PingFangSC-Semibold-57" transform="translate(117.40625 0)"/>
     <use xlink:href="#PingFangSC-Semibold-44" transform="translate(153.609375 0)"/>
     <use xlink:href="#PingFangSC-Semibold-4a" transform="translate(210.8125 0)"/>
     <use xlink:href="#PingFangSC-Semibold-48" transform="translate(271.015625 0)"/>
     <use xlink:href="#PingFangSC-Semibold-51" transform="translate(327.71875 0)"/>
     <use xlink:href="#PingFangSC-Semibold-10" transform="translate(385.8125 0)"/>
     <use xlink:href="#PingFangSC-Semibold-1b" transform="translate(446.3125 0)"/>
     <use xlink:href="#PingFangSC-Semibold-42" transform="translate(506.3125 0)"/>
     <use xlink:href="#PingFangSC-Semibold-14" transform="translate(556.3125 0)"/>
     <use xlink:href="#PingFangSC-Semibold-10" transform="translate(597.3125 0)"/>
     <use xlink:href="#PingFangSC-Semibold-49" transform="translate(657.8125 0)"/>
     <use xlink:href="#PingFangSC-Semibold-45" transform="translate(695.609375 0)"/>
     <use xlink:href="#PingFangSC-Semibold-493" transform="translate(755.8125 0)"/>
     <use xlink:href="#PingFangSC-Semibold-18" transform="translate(855.8125 0)"/>
     <use xlink:href="#PingFangSC-Semibold-3" transform="translate(915.8125 0)"/>
     <use xlink:href="#PingFangSC-Semibold-f7a" transform="translate(949.109375 0)"/>
     <use xlink:href="#PingFangSC-Semibold-1987" transform="translate(1049.109375 0)"/>
     <use xlink:href="#PingFangSC-Semibold-df8" transform="translate(1149.109375 0)"/>
     <use xlink:href="#PingFangSC-Semibold-156e" transform="translate(1249.109375 0)"/>
     <use xlink:href="#PingFangSC-Semibold-e8e" transform="translate(1349.109375 0)"/>
    </g>
   </g>
  </g>
 </g>
 <defs>
  <clipPath id="paa48c82c54">
   <rect x="70.85125" y="38.68" width="687.545" height="274.8"/>
  </clipPath>
 </defs>
</svg>
